<svg width="98" height="98" viewBox="0 0 98 98" fill="none" xmlns="http://www.w3.org/2000/svg">
<path d="M75.7272 40.0908C78.1874 40.0908 80.1817 38.0965 80.1817 35.6363C80.1817 33.1761 78.1874 31.1818 75.7272 31.1818C73.2671 31.1818 71.2727 33.1761 71.2727 35.6363C71.2727 38.0965 73.2671 40.0908 75.7272 40.0908Z" fill="#CECECE"/>
<path d="M25.7383 20.0453C26.2863 20.0453 26.7273 19.6488 26.7273 19.1545V16.4818C26.7273 15.9918 26.2863 15.591 25.7383 15.591H18.807C18.2592 15.591 17.8182 15.9874 17.8182 16.4818V19.1545C17.8182 19.6445 18.2592 20.0453 18.807 20.0453H25.7383Z" fill="#CECECE"/>
<path d="M51 71C62.0444 71 71 62.0443 71 51.0001C71 39.9556 62.0444 31 51 31C39.9556 31 31 39.9556 31 51.0001C31 62.0443 39.9556 71 51 71ZM51 35.4446C59.591 35.4446 66.5554 42.4089 66.5554 51.0001C66.5554 59.5909 59.591 66.5554 51 66.5554C42.409 66.5554 35.4444 59.5909 35.4444 51.0001C35.4444 42.4089 42.409 35.4446 51 35.4446Z" fill="#CECECE"/>
<path d="M0 31.1818V75.7274C0 84.6366 8.90903 84.6366 8.90903 84.6366H89.0908C89.0908 84.6366 98 84.6366 98 75.7274V31.1818C98 22.2727 89.0908 22.2727 89.0908 22.2727H72.1636L67.4328 14.3927C67.0943 13.8225 66.2747 13.3637 65.6333 13.3637H36.8213C36.1665 13.3637 35.3513 13.8404 35.0215 14.3927L30.2908 22.2727H8.90903C8.90903 22.2726 0 22.2726 0 31.1818ZM33.2933 26.7273L38.2555 17.8181H63.7713L69.4151 26.7273H89.0418C89.0418 26.7273 93.5453 26.7273 93.5453 31.262V75.6425C93.5453 80.1819 89.0418 80.1819 89.0418 80.1819H8.95803C8.95803 80.1819 4.45452 80.1819 4.45452 75.6425V31.262C4.45452 26.7273 8.95803 26.7273 8.95803 26.7273H33.2933V26.7273Z" fill="#CECECE"/>
</svg>
